<svg width="37" height="29" viewBox="0 0 37 29" fill="none" xmlns="http://www.w3.org/2000/svg">
<path fill-rule="evenodd" clip-rule="evenodd" d="M23.6684 2.35833C23.794 1.88754 23.7313 1.38634 23.4938 0.960903C23.2563 0.535469 22.8624 0.21922 22.3957 0.079147C21.929 -0.0609261 21.4261 -0.0138197 20.9936 0.210487C20.561 0.434794 20.2328 0.818681 20.0784 1.28083L12.5784 26.2808C12.4562 26.7506 12.521 27.2495 12.7591 27.6725C12.9972 28.0955 13.3901 28.4097 13.8551 28.5489C14.3202 28.6881 14.8211 28.6416 15.2525 28.4191C15.6839 28.1966 16.0122 27.8155 16.1684 27.3558L23.6684 2.35833ZM9.44835 6.74333C9.79948 7.09489 9.9967 7.57145 9.9967 8.06833C9.9967 8.56521 9.79948 9.04177 9.44835 9.39333L4.52335 14.3183L9.44835 19.2433C9.77955 19.5988 9.95986 20.0689 9.95129 20.5546C9.94272 21.0404 9.74594 21.5039 9.4024 21.8474C9.05887 22.1909 8.59541 22.3877 8.10966 22.3963C7.6239 22.4048 7.15379 22.2245 6.79835 21.8933L0.54835 15.6433C0.197224 15.2918 0 14.8152 0 14.3183C0 13.8215 0.197224 13.3449 0.54835 12.9933L6.79835 6.74333C7.14991 6.3922 7.62647 6.19498 8.12335 6.19498C8.62023 6.19498 9.09679 6.3922 9.44835 6.74333ZM26.7984 21.8933C26.4472 21.5418 26.25 21.0652 26.25 20.5683C26.25 20.0715 26.4472 19.5949 26.7984 19.2433L31.7233 14.3183L26.7984 9.39333C26.4672 9.03789 26.2868 8.56778 26.2954 8.08202C26.304 7.59627 26.5008 7.13281 26.8443 6.78927C27.1878 6.44574 27.6513 6.24896 28.137 6.24039C28.6228 6.23182 29.0929 6.41213 29.4483 6.74333L35.6983 12.9933C36.0495 13.3449 36.2467 13.8215 36.2467 14.3183C36.2467 14.8152 36.0495 15.2918 35.6983 15.6433L29.4483 21.8933C29.0968 22.2445 28.6202 22.4417 28.1234 22.4417C27.6265 22.4417 27.1499 22.2445 26.7984 21.8933Z" fill="#149BB0"/>
</svg>
