<svg width="25" height="39" viewBox="0 0 25 39" fill="none" xmlns="http://www.w3.org/2000/svg">
<path d="M21.1957 0H3.80435C1.71739 0 0 1.73048 0 3.83333V34.5C0 36.6029 1.71739 38.3333 3.80435 38.3333H21.1957C23.2826 38.3333 25 36.6029 25 34.5V3.83333C25 1.73048 23.2826 0 21.1957 0ZM21.7391 34.5C21.7391 34.8067 21.5 35.0476 21.1957 35.0476H3.80435C3.5 35.0476 3.26087 34.8067 3.26087 34.5V3.83333C3.26087 3.52667 3.5 3.28571 3.80435 3.28571H21.1957C21.5 3.28571 21.7391 3.52667 21.7391 3.83333V34.5ZM14.6739 27.9286C14.6739 29.1333 13.6957 30.119 12.5 30.119C11.3043 30.119 10.3261 29.1333 10.3261 27.9286C10.3261 26.7238 11.3043 25.7381 12.5 25.7381C13.6957 25.7381 14.6739 26.7238 14.6739 27.9286Z" fill="#149BB0"/>
</svg>
