<svg width="128" height="28" viewBox="0 0 128 28" fill="none" xmlns="http://www.w3.org/2000/svg">
<path fill-rule="evenodd" clip-rule="evenodd" d="M127.193 21.4969C121.87 29.3942 113.439 27.1027 110.907 25.3085C109.829 25.9483 107.94 27.3505 105.42 27.1886C100.054 26.844 98.1324 20.1343 98.1324 20.1343C98.171 20.1611 96.534 20.6285 95.6493 20.6202C95.6379 22.5878 93.694 27.2882 88.4479 27.2281C82.5609 27.1609 81.3641 19.4867 81.3641 19.4867C81.3641 19.4867 80.7783 20.1985 78.5508 20.9075C78.6629 19.3958 78.581 26.998 71.5252 27.1097C65.9472 27.1982 64.4415 19.3684 64.4415 19.3684C64.4415 19.3684 63.4738 20.2479 61.5985 20.553C61.7177 19.0167 61.5239 27.1355 54.4673 27.1097C49.6985 27.0924 48.069 22.2866 48.1957 21.6195C48.3574 20.7695 46.584 27.2293 41.9519 27.1286C40.0403 27.0795 38.6152 25.8685 37.721 24.254C36.5239 25.4525 34.7858 27.1286 32.8361 27.1286C29.3362 27.1286 27.7933 24.5673 28.0546 17.2515C28.0769 16.3838 28.0053 16.0425 27.0195 15.9127C26.4278 15.8264 25.8219 15.6628 25.1807 15.5766C24.9752 16.1766 23.2323 26.9334 17.2391 27.1376C15.2285 27.2061 14.1291 25.6821 13.2262 24.551C11.8422 26.153 10.0153 27.1886 7.41257 27.1886C3.00382 27.1886 0 24.0701 0 20.2231C0 16.3761 3.00382 13.2578 7.41257 13.2578C8.19208 13.2578 8.41091 13.3556 9.12304 13.5374C7.65851 1.87006 11.1171 0.0466204 14.1427 0.0466204C17.0474 0.0466204 22.0097 5.94563 15.0272 20.9087C16.5775 25.3717 19.9195 25.1193 21.5255 15.9318C21.8523 14.0643 20.9784 11.5441 22.3378 11.1924C24.8227 10.5496 25.0864 12.4782 26.2515 12.7996C27.4835 13.1392 28.2026 13.106 29.3853 13.3221C31.4063 13.6675 32.1949 14.6174 31.9487 16.7332C31.653 19.4103 31.1357 23.3068 32.7129 23.7817C33.8502 24.1267 35.9266 22.0629 36.291 20.9337C36.6553 19.8045 36.7314 19.4181 36.7637 18.5899C36.813 16.8197 36.8749 15.5222 37.2198 14.1835C37.3675 13.6655 37.5358 13.3224 38.2056 13.299C38.7567 13.2867 39.7646 13.1415 40.2083 13.4436C40.7996 13.8324 40.7257 14.2269 40.6578 15.2652C39.9701 30.0689 45.2635 22.6788 46.8418 16.7615C46.2798 10.0705 46.6656 0.169145 51.4575 0.00308165C53.9497 -0.0832806 55.0515 1.66365 55.1726 2.96758C55.5154 6.65035 53.5954 12.7508 51.0702 16.8533C49.627 25.2243 57.3802 26.8795 58.6201 20.1978C56.5915 19.3538 54.3993 15.938 56.1832 14.2733C57.1842 13.3391 61.3511 14.6812 61.4193 17.6084C63.4633 17.1301 63.7361 16.1203 63.7645 16.2876C63.2026 9.59658 63.7237 0.169231 68.516 0.00316715C71.0078 -0.0831951 72.1094 1.66374 72.2306 2.96767C72.5733 6.65042 70.6533 12.7509 68.1284 16.8535C66.6851 25.2243 74.4384 26.8796 75.678 20.1979C74.1761 19.9443 71.0058 16.3111 72.835 14.2734C73.8126 13.1845 77.9641 15.449 78.429 17.7053C80.3924 17.2191 80.6591 16.2414 80.6873 16.406C80.1253 9.71516 80.6464 0.287811 85.4386 0.121748C87.9304 0.0353854 89.032 1.78232 89.1532 3.08625C89.496 6.769 87.5759 12.8696 85.0507 16.9721C83.6077 25.3431 91.3609 26.998 92.6008 20.3163C90.5369 20.0156 87.6038 16.1794 89.9645 14.2169C90.9077 13.4327 94.5117 15.4682 95.3553 17.7904C96.5275 17.7509 97.2571 17.3972 97.4135 17.3615C95.5422 9.50664 96.9353 0.0819546 102.09 0.00328231C104.877 -0.0391984 107.601 1.32133 106.405 8.79419C105.264 15.9242 101.161 18.9163 101.171 18.9621C101.41 19.8163 103.515 26.9648 108.816 23.193C108.541 22.6493 108.267 22.0939 108.113 21.421C107.234 17.5013 108.96 13.074 113.651 12.3585C116.339 11.9485 118.87 13.0934 119.271 15.6746C119.929 19.8981 115.571 22.9569 113.913 23.6204C113.171 23.2514 120.642 27.4443 125.077 19.0416C125.334 18.5618 125.644 18.6025 126.045 18.8497C126.329 19.0244 127.944 20.3635 127.193 21.4969ZM10.6195 19.1853C10.3939 18.5951 9.93091 17.2946 9.76718 16.7311C8.86546 16.045 8.22183 15.9336 7.06439 15.9336C4.49219 15.9336 2.97824 18.0145 2.97824 20.2583C2.97824 22.502 4.62758 24.5832 7.19979 24.5832C9.42891 24.5832 11.1255 23.2571 11.6431 21.3797C11.2808 20.6479 10.9214 19.9753 10.6195 19.1853ZM14.0796 3.13504C12.2723 3.13504 11.6592 6.9076 11.7782 10.126C11.8834 12.9714 12.7921 15.4764 13.2635 16.5989C13.3831 16.7395 13.3609 16.648 13.4678 16.7971C16.6059 10.7808 15.3043 3.13504 14.0796 3.13504ZM51.7157 3.25355C49.3797 3.01913 49.3948 11.5337 49.6848 13.4436C50.898 11.7454 53.0055 3.7108 51.7157 3.25355ZM68.7736 3.25355C66.4377 3.01913 66.4527 11.5337 66.7429 13.4436C67.9559 11.7454 70.0636 3.7108 68.7736 3.25355ZM85.6964 3.37201C83.3603 3.1376 83.3754 11.6522 83.6655 13.5623C84.8786 11.8639 86.9862 3.82923 85.6964 3.37201ZM102.348 2.75512C98.7087 3.39461 99.5562 14.0125 100.109 15.8748C104.396 10.7226 104.484 2.56159 102.348 2.75512ZM115.988 16.0239C115.803 15.3469 114.878 14.9851 114.239 15.0743C112.412 15.2926 110.639 17.2841 111.326 20.316C111.478 20.9912 111.86 21.6128 111.854 21.5921C115.944 19.1913 116.292 17.2995 115.988 16.0239ZM38.922 10.9554C38.3997 10.9555 37.8891 10.82 37.4548 10.5662C37.0205 10.3123 36.6819 9.95151 36.4819 9.5293C36.282 9.10711 36.2297 8.6425 36.3316 8.19427C36.4333 7.74602 36.6849 7.33429 37.0542 7.01111C37.4235 6.68793 37.894 6.46784 38.4062 6.37867C38.9185 6.28949 39.4495 6.33524 39.9321 6.51014C40.4146 6.68502 40.827 6.9812 41.1171 7.3612C41.4073 7.7412 41.5621 8.18796 41.5621 8.64496C41.5621 8.94835 41.4939 9.24879 41.3612 9.52908C41.2286 9.80939 41.0341 10.0641 40.7889 10.2786C40.5437 10.4932 40.2527 10.6634 39.9324 10.7795C39.6121 10.8956 39.2688 10.9554 38.922 10.9554Z" fill="white"/>
</svg>
